<svg version="1.1" xmlns="http://www.w3.org/2000/svg" xmlns:xlink="http://www.w3.org/1999/xlink" viewBox="0 0 27.1484 23.1738">
  <g>
    <rect height="23.1738" opacity="0" width="27.1484" x="0" y="0"/>
    <path fill="firebrick" d="M2.27539 23.1738L7.97852 23.1738C9.46289 23.1738 10.6445 22.3926 11.3477 20.9668L19.1992 4.76562C19.3066 4.53125 19.5117 4.41406 19.8047 4.41406L24.5215 4.41406C25.8105 4.41406 26.7871 3.45703 26.7871 2.20703C26.7871 0.976562 25.8008 0 24.5215 0L18.7988 0C17.1973 0 16.2012 0.644531 15.4395 2.1875L7.57812 18.4082C7.46094 18.6426 7.25586 18.7598 6.98242 18.7598L2.27539 18.7598C0.976562 18.7598 0 19.7168 0 20.9668C0 22.207 0.986328 23.1738 2.27539 23.1738ZM17.3633 23.1738L24.5215 23.1738C25.8105 23.1738 26.7871 22.2168 26.7871 20.9668C26.7871 19.7168 25.8105 18.7695 24.5215 18.7695L17.3633 18.7695C16.0645 18.7695 15.0879 19.7168 15.0879 20.9668C15.0879 22.207 16.0742 23.1738 17.3633 23.1738Z"/>
  </g>
</svg>